# xmcd
#
# Track frame offsets:
# 150
# 18158
# 31368
# 47137
# 65224
# 78105
# 91762
# 106838
# 117933
# 130506
# 147051
# 161838
#
# Disc length: 2422 seconds
#
#
# Revision: 0
# Processed by: cddbd v1.5.2PL0 Copyright (c) Steve Scherf et al.
# Submitted via: FreeRIP 2.52 
#
DISCID=9109740c
DTITLE=Jaffa - Ablakanapra
DYEAR=2006
DGENRE=Blues
TTITLE0=01
TTITLE1=02
TTITLE2=03
TTITLE3=04
TTITLE4=05
TTITLE5=06
TTITLE6=07
TTITLE7=08
TTITLE8=09
TTITLE9=10
TTITLE10=11
TTITLE11=12
EXTD=
EXTT0=
EXTT1=
EXTT2=
EXTT3=
EXTT4=
EXTT5=
EXTT6=
EXTT7=
EXTT8=
EXTT9=
EXTT10=
EXTT11=
PLAYORDER=
